<?xml version="1.0" encoding="UTF-8" standalone="no"?>
<svg
   version="1.1"
   width="309.62744"
   height="36.530102"
   id="svg8"
   viewBox="0 0 309.62744 36.530102"
   sodipodi:docname="7e3fa3dbdec54cb45fc2c72725a005f9.cdr"
   xmlns:inkscape="http://www.inkscape.org/namespaces/inkscape"
   xmlns:sodipodi="http://sodipodi.sourceforge.net/DTD/sodipodi-0.dtd"
   xmlns="http://www.w3.org/2000/svg"
   xmlns:svg="http://www.w3.org/2000/svg">
  <defs
     id="defs12" />
  <sodipodi:namedview
     id="namedview10"
     pagecolor="#ffffff"
     bordercolor="#666666"
     borderopacity="1.0"
     inkscape:pageshadow="2"
     inkscape:pageopacity="0.0"
     inkscape:pagecheckerboard="0" />
  <path
     d="m 218.8992,33.15915 c 0,0.4143 -0.0676,0.7818 -0.1945,1.1135 -0.1363,0.323 -0.3135,0.5895 -0.5335,0.8011 -0.228,0.2211 -0.4903,0.3782 -0.7958,0.4792 -0.3031,0.0924 -0.6168,0.1476 -0.9308,0.1476 h -2.7744 c -0.5756,0 -1.0834,-0.065 -1.4975,-0.1935 -0.4245,-0.1198 -0.8129,-0.3504 -1.1691,-0.681 -0.3547,-0.3314 -0.7017,-0.783 -1.0311,-1.3534 -0.3308,-0.5623 -0.703,-1.2983 -1.1089,-2.2016 l -7.987,-16.3167 c -0.4571,-0.9752 -0.9312,-2.0167 -1.4135,-3.1398 -0.4739,-1.1228 -0.9055,-2.2183 -1.2859,-3.2778 h -0.051 c 0.0676,1.2888 0.1184,2.5788 0.1523,3.8676 0.0254,1.289 0.0414,2.6147 0.0414,3.977 v 18.2695 c 0,0.1752 -0.0414,0.34 -0.1352,0.4778 -0.0844,0.148 -0.245,0.267 -0.4648,0.3691 -0.2291,0.1017 -0.5244,0.1753 -0.9054,0.2305 -0.382,0.054 -0.8714,0.0828 -1.4638,0.0828 -0.5756,0 -1.0581,-0.0288 -1.4377,-0.0828 -0.3819,-0.0552 -0.6779,-0.1288 -0.8977,-0.2305 -0.2116,-0.1021 -0.3551,-0.2211 -0.4404,-0.3691 -0.0842,-0.1378 -0.1261,-0.3026 -0.1261,-0.4778 V 3.27005 c 0,-0.8381 0.228,-1.4735 0.6848,-1.8975 0.4484,-0.42390001 1.0061,-0.63520001 1.6672,-0.63520001 h 3.5031 c 0.6259,0 1.1505,0.0549 1.5821,0.1752 0.4314,0.11900001 0.812,0.31350001 1.1507,0.58000001 0.3388,0.267 0.6598,0.6441 0.9563,1.1231 0.2953,0.4697 0.5999,1.0592 0.9136,1.7584 l 6.2528,12.7626 c 0.3645,0.7734 0.7192,1.5376 1.0754,2.2833 0.3556,0.7459 0.7021,1.4917 1.0324,2.2376 0.3297,0.7458 0.6514,1.4835 0.9642,2.2014 0.3128,0.7184 0.617,1.4367 0.9137,2.155 h 0.0257 c -0.0512,-1.2622 -0.0855,-2.5693 -0.1101,-3.9418 -0.0255,-1.3623 -0.0339,-2.6704 -0.0339,-3.9035 V 1.78685 c 0,-0.1742 0.0514,-0.341 0.144,-0.4877 0.1006,-0.1382 0.2703,-0.2676 0.4994,-0.37710001 0.2279,-0.1008 0.5332,-0.1847 0.913,-0.2208 0.3819,-0.0468 0.8724,-0.0745 1.4644,-0.0745 0.5658,0 1.0318,0.0277 1.4131,0.0745 0.3806,0.0361 0.677,0.12 0.8795,0.2208 0.2116,0.10950001 0.356,0.23890001 0.4316,0.37710001 0.0851,0.1467 0.1274,0.3135 0.1274,0.4877 z m -38.7716,-14.9905 c 0,-1.8427 -0.135,-3.5085 -0.3971,-5.0099 -0.2625,-1.5015 -0.7193,-2.7889 -1.3538,-3.8579 -0.6339,-1.0678 -1.4809,-1.8964 -2.5379,-2.4769 -1.0583,-0.5884 -2.3783,-0.8838 -3.9686,-0.8838 -1.6003,0 -2.9451,0.3315 -4.0196,0.9851 -1.0665,0.6628 -1.9377,1.5384 -2.5977,2.6337 -0.6595,1.0956 -1.1254,2.3757 -1.4044,3.8399 -0.2707,1.4727 -0.4058,3.0195 -0.4058,4.6592 0,1.9058 0.1351,3.6186 0.3974,5.1369 0.2621,1.5194 0.7105,2.819 1.3364,3.8964 0.6268,1.076 1.4724,1.9048 2.5299,2.468 1.0583,0.5696 2.3863,0.8554 3.9939,0.8554 1.6,0 2.9368,-0.3316 4.0111,-0.9755 1.075,-0.6449 1.9459,-1.5289 2.6061,-2.6435 0.6602,-1.1135 1.1264,-2.4118 1.3962,-3.895 0.2789,-1.4822 0.4139,-3.0663 0.4139,-4.7321 z m 6.8372,-0.3775 c 0,2.891 -0.3292,5.4782 -0.9899,7.7617 -0.6598,2.2833 -1.6417,4.2265 -2.9524,5.8204 -1.3031,1.5829 -2.9191,2.7983 -4.8401,3.6367 -1.9295,0.8372 -4.1552,1.2515 -6.6851,1.2515 -2.4957,0 -4.6705,-0.3496 -6.5319,-1.0583 -1.8615,-0.7085 -3.4095,-1.7957 -4.6457,-3.2513 -1.2427,-1.464 -2.1736,-3.3137 -2.7922,-5.5609 -0.6181,-2.246 -0.9307,-4.9077 -0.9307,-7.9835 0,-2.8272 0.331,-5.3677 0.9992,-7.6235 0.6597,-2.2567 1.641,-4.1713 2.9439,-5.7552 1.3041,-1.5843 2.9196,-2.7997 4.8482,-3.6467 1.9213,-0.84660001 4.1638,-1.26110001 6.7023,-1.26110001 2.4371,0 4.5772,0.3494 6.4389,1.04970001 1.8539,0.699 3.4099,1.7766 4.6534,3.2311 1.2524,1.4651 2.1918,3.2969 2.8257,5.525 0.6431,2.2195 0.9564,4.8342 0.9564,7.8644 z m -31.2812,-14.144 c 0,0.5251 -0.0255,0.9671 -0.0685,1.3357 -0.0425,0.3676 -0.1008,0.6715 -0.1861,0.8924 -0.0835,0.2211 -0.1859,0.3964 -0.304,0.4974 -0.1274,0.1106 -0.2629,0.1655 -0.4154,0.1655 h -8.0287 v 28.1392 c 0,0.1764 -0.0512,0.3412 -0.162,0.4793 -0.1094,0.1477 -0.288,0.2676 -0.5319,0.3504 -0.2455,0.0924 -0.5845,0.166 -1.0074,0.2212 -0.4143,0.054 -0.9391,0.0828 -1.5743,0.0828 -0.6259,0 -1.1512,-0.0288 -1.5735,-0.0828 -0.4149,-0.0552 -0.7526,-0.1288 -0.9989,-0.2212 -0.253,-0.0828 -0.4314,-0.2027 -0.5326,-0.3504 -0.1099,-0.1381 -0.1604,-0.3029 -0.1604,-0.4793 V 6.53815 h -8.0383 c -0.1604,0 -0.3053,-0.0549 -0.4147,-0.1655 -0.1188,-0.101 -0.2209,-0.2763 -0.3047,-0.4974 -0.0768,-0.2209 -0.1451,-0.5248 -0.1859,-0.8924 -0.0345,-0.3686 -0.0598,-0.8106 -0.0598,-1.3357 0,-0.5341 0.0253,-0.9943 0.0598,-1.3714 0.0408,-0.3784 0.1091,-0.681 0.1859,-0.9032 0.0838,-0.2296 0.1859,-0.38690001 0.3047,-0.48770001 0.1094,-0.101 0.2543,-0.1475 0.4147,-0.1475 h 22.608 c 0.1525,0 0.288,0.0465 0.4154,0.1475 0.1181,0.1008 0.2205,0.25810001 0.304,0.48770001 0.0853,0.2222 0.1436,0.5248 0.1861,0.9032 0.043,0.3771 0.0685,0.8373 0.0685,1.3714 z m -28.338,31.0302 c 0,0.1764 -0.0585,0.3412 -0.1688,0.4793 -0.1017,0.1477 -0.2798,0.2676 -0.5337,0.3504 -0.2457,0.0924 -0.5756,0.166 -0.9906,0.2212 -0.4134,0.054 -0.9385,0.0828 -1.5814,0.0828 -0.627,0 -1.151,-0.0288 -1.5735,-0.0828 -0.4242,-0.0552 -0.7619,-0.1288 -1.0071,-0.2212 -0.2459,-0.0828 -0.423,-0.2027 -0.5337,-0.3504 -0.1093,-0.1381 -0.1604,-0.3029 -0.1604,-0.4793 V 1.70395 c 0,-0.1739 0.0511,-0.3407 0.1604,-0.4779 0.1107,-0.1478 0.2878,-0.26780001 0.5501,-0.35090001 0.2543,-0.0913 0.584,-0.1655 0.9992,-0.2207 0.414,-0.0554 0.938,-0.0831 1.565,-0.0831 0.6429,0 1.168,0.0277 1.5814,0.0831 0.415,0.0552 0.7449,0.1294 0.9906,0.2207 0.2539,0.0831 0.432,0.20310001 0.5337,0.35090001 0.1103,0.1372 0.1688,0.304 0.1688,0.4779 z m -20.6037,-0.2753 c -0.085,0.3039 -0.1945,0.5527 -0.3219,0.7459 -0.1349,0.1839 -0.346,0.3317 -0.6431,0.4327 -0.3042,0.0924 -0.7024,0.1571 -1.2183,0.1837 -0.5156,0.0277 -1.1853,0.0467 -2.0055,0.0467 -0.6604,0 -1.2272,-0.01 -1.7011,-0.019 -0.4734,-0.01 -0.8709,-0.0277 -1.2001,-0.0638 -0.3303,-0.037 -0.6013,-0.0927 -0.8047,-0.1658 -0.2115,-0.0744 -0.381,-0.1573 -0.525,-0.2676 -0.1347,-0.1105 -0.2446,-0.2393 -0.3206,-0.3955 -0.0765,-0.1477 -0.1445,-0.3409 -0.2127,-0.5802 L 88.2448,3.37955 c -0.1941,-0.6436 -0.3133,-1.1603 -0.3547,-1.5374 -0.0428,-0.3773 0.0414,-0.6631 0.245,-0.84670001 0.202,-0.1934 0.5583,-0.304 1.0574,-0.3507 0.491,-0.0457 1.1847,-0.0734 2.0815,-0.0734 0.7619,0 1.3539,0.0193 1.7859,0.0554 0.4227,0.037 0.7522,0.1022 0.9892,0.1945 0.2289,0.0913 0.39,0.21980001 0.4826,0.40480001 0.0935,0.1742 0.177,0.4048 0.2625,0.6713 l 7.8094,26.9247 h 0.018 l 7.6656,-26.7856 c 0.0669,-0.3143 0.1433,-0.5534 0.2457,-0.7468 0.1021,-0.1837 0.2709,-0.34100001 0.508,-0.44090001 0.237,-0.1114 0.5831,-0.185 1.0311,-0.222 0.4402,-0.0361 1.0579,-0.0554 1.828,-0.0554 0.7617,0 1.3541,0.0277 1.777,0.0831 0.4234,0.0552 0.7112,0.1846 0.8718,0.39640001 0.1531,0.2027 0.2027,0.4971 0.1434,0.8742 -0.0587,0.3784 -0.1859,0.8853 -0.3804,1.5108 z M 74.1659,7.40445 h -0.0268 l -4.5346,14.8343 h 9.0957 z m 14.7302,25.5983 c 0.1954,0.644 0.3224,1.1604 0.3729,1.5375 0.0425,0.3771 -0.0169,0.6629 -0.203,0.847 -0.1783,0.1934 -0.4996,0.304 -0.9644,0.3505 -0.4659,0.0445 -1.1013,0.0733 -1.9124,0.0733 -0.8372,0 -1.4985,-0.019 -1.9722,-0.0467 -0.4657,-0.0266 -0.8291,-0.082 -1.0743,-0.1564 -0.2455,-0.0829 -0.4229,-0.1932 -0.5251,-0.3397 -0.0924,-0.148 -0.177,-0.3316 -0.2452,-0.5716 l -2.1575,-7.0071 H 68.1662 l -2.0319,6.823 c -0.0669,0.2488 -0.1517,0.4602 -0.2607,0.6354 -0.1022,0.1657 -0.2801,0.304 -0.5171,0.405 -0.2371,0.0924 -0.5843,0.1655 -1.0154,0.2029 -0.44,0.0362 -1.0149,0.0552 -1.7261,0.0552 -0.7614,0 -1.3532,-0.0288 -1.7857,-0.0828 -0.4309,-0.0552 -0.7278,-0.185 -0.8884,-0.3964 -0.1688,-0.2032 -0.228,-0.4974 -0.177,-0.8745 0.051,-0.377 0.177,-0.8839 0.3722,-1.5096 l 9.8913,-30.9664 c 0.101,-0.3051 0.2114,-0.5535 0.3465,-0.746 0.1356,-0.1845 0.3474,-0.33250001 0.6354,-0.43330001 0.2878,-0.0924 0.685,-0.1573 1.2015,-0.185 0.5078,-0.0264 1.1928,-0.0457 2.03,-0.0457 0.9737,0 1.7525,0.0193 2.3354,0.0457 0.5754,0.0277 1.0249,0.0926 1.3457,0.185 0.3214,0.1008 0.5587,0.24880001 0.6936,0.45150001 0.1445,0.1923 0.2626,0.4601 0.3645,0.8095 z M 49.424,11.04115 c 0,-1.1505 -0.2371,-2.1176 -0.7194,-2.9092 -0.4741,-0.7927 -1.2617,-1.3545 -2.3526,-1.6764 -0.3302,-0.0926 -0.7021,-0.1657 -1.1253,-0.2116 -0.4236,-0.0552 -1.0076,-0.0829 -1.7525,-0.0829 H 40.556 v 9.8984 h 3.3161 c 0.931,0 1.7348,-0.1203 2.4287,-0.3677 0.6939,-0.2402 1.2785,-0.5801 1.7354,-1.0221 0.4648,-0.4419 0.8111,-0.967 1.0401,-1.5747 0.2369,-0.6173 0.3477,-1.2985 0.3477,-2.0538 z m 8.4102,23.6828 c 0,0.2031 -0.0335,0.3691 -0.1019,0.5069 -0.0671,0.1287 -0.2205,0.2393 -0.4739,0.3316 -0.2455,0.0924 -0.6086,0.156 -1.0909,0.1934 -0.4741,0.0362 -1.1255,0.0552 -1.955,0.0552 -0.6936,0 -1.2522,-0.019 -1.6589,-0.0552 -0.4139,-0.0374 -0.7433,-0.1105 -0.9804,-0.2029 -0.2384,-0.101 -0.4072,-0.2304 -0.5078,-0.3771 -0.1021,-0.1573 -0.1861,-0.3414 -0.255,-0.5527 l -2.8682,-7.7988 c -0.3469,-0.8849 -0.6854,-1.6669 -1.0155,-2.3491 -0.3379,-0.681 -0.7024,-1.2515 -1.108,-1.7126 -0.4061,-0.4601 -0.8714,-0.8011 -1.3962,-1.0401 -0.5333,-0.2296 -1.1419,-0.3499 -1.8358,-0.3499 H 40.556 v 13.3047 c 0,0.1764 -0.0594,0.3412 -0.1615,0.4793 -0.1103,0.1477 -0.288,0.2676 -0.5328,0.3504 -0.2546,0.0924 -0.584,0.166 -0.9995,0.2212 -0.4058,0.054 -0.938,0.0828 -1.5814,0.0828 -0.6263,0 -1.1507,-0.0288 -1.5739,-0.0828 -0.4229,-0.0552 -0.761,-0.1288 -1.0062,-0.2212 -0.2453,-0.0828 -0.4234,-0.2027 -0.516,-0.3504 -0.1022,-0.1381 -0.1529,-0.3029 -0.1529,-0.4793 V 2.97475 c 0,-0.7916 0.1854,-1.3621 0.5585,-1.7126 0.3718,-0.34960001 0.8286,-0.52480001 1.3792,-0.52480001 h 8.3008 c 0.8463,0 1.5402,0.0188 2.0817,0.0549 0.5494,0.0375 1.0397,0.0829 1.4885,0.1298 C 49.1271,1.12395 50.286,1.46485 51.3277,1.95275 c 1.0316,0.4885 1.9029,1.1144 2.6227,1.8976 0.7187,0.782 1.2695,1.7114 1.6493,2.7804 0.3804,1.0679 0.5678,2.3015 0.5678,3.6828 0,1.1698 -0.1365,2.2375 -0.4072,3.1948 -0.2701,0.9682 -0.6769,1.8242 -1.2006,2.5788 -0.533,0.7553 -1.1844,1.4086 -1.9638,1.9709 -0.7697,0.5523 -1.6579,1.003 -2.6486,1.3437 0.4827,0.2586 0.932,0.5621 1.3536,0.9214 0.4154,0.359 0.8133,0.7914 1.1858,1.3081 0.3724,0.5153 0.728,1.0953 1.0574,1.7487 0.3295,0.6631 0.6511,1.3991 0.9644,2.2281 l 2.6989,6.8784 c 0.2537,0.6811 0.4148,1.188 0.4994,1.5015 0.0849,0.3124 0.1274,0.5621 0.1274,0.736 z M 27.415,6.16105 c 0,0.5154 -0.0168,0.9669 -0.0591,1.3442 -0.043,0.3771 -0.1022,0.681 -0.1777,0.903 -0.0769,0.2295 -0.1615,0.3868 -0.2705,0.4783 -0.1108,0.0924 -0.2373,0.1285 -0.382,0.1285 -0.2189,0 -0.5663,-0.1562 -1.0402,-0.4783 -0.4825,-0.3312 -1.1177,-0.6821 -1.9124,-1.0592 -0.7945,-0.3771 -1.7431,-0.7276 -2.8345,-1.0495 -1.0995,-0.3219 -2.3783,-0.4879 -3.8339,-0.4879 -1.5564,0 -2.961,0.2954 -4.2123,0.8838 -1.2611,0.5805 -2.3354,1.4091 -3.2247,2.4769 -0.8884,1.069 -1.5823,2.3564 -2.056,3.8579 -0.4825,1.5014 -0.7193,3.1588 -0.7193,4.9822 0,1.9888 0.2454,3.7471 0.728,5.2667 0.4905,1.5193 1.1678,2.7997 2.0473,3.8215 0.8798,1.0222 1.9291,1.7956 3.1651,2.3207 1.2269,0.5237 2.5892,0.7821 4.0696,0.7821 0.7276,0 1.4467,-0.0915 2.1572,-0.2668 0.7114,-0.1839 1.371,-0.4515 1.9893,-0.8108 v -8.0939 h -6.0766 c -0.2953,0 -0.5322,-0.2021 -0.6924,-0.6077 -0.1697,-0.4048 -0.2457,-1.0954 -0.2457,-2.0613 0,-0.5069 0.016,-0.9308 0.0599,-1.2719 0.0416,-0.3401 0.1005,-0.6162 0.1858,-0.8191 0.0838,-0.2116 0.1773,-0.3591 0.2951,-0.4613 0.1195,-0.1008 0.2462,-0.1466 0.3973,-0.1466 h 10.8315 c 0.2624,0 0.4992,0.0458 0.7105,0.1466 0.2028,0.1022 0.39,0.2497 0.5424,0.4422 0.16,0.203 0.2792,0.4431 0.3627,0.7183 0.0769,0.2772 0.1189,0.5991 0.1189,0.9584 v 13.8938 c 0,0.5346 -0.0846,1.0043 -0.2536,1.4102 -0.177,0.4048 -0.5317,0.7267 -1.0652,0.9571 -0.5424,0.2393 -1.2115,0.4783 -1.998,0.7364 -0.7958,0.2488 -1.6162,0.4602 -2.4714,0.645 -0.8456,0.1743 -1.7083,0.3135 -2.5708,0.4047 -0.8727,0.0924 -1.7441,0.1285 -2.6238,0.1285 -2.5549,0 -4.8478,-0.395 -6.8794,-1.1961 C 7.4543,34.23655 5.745,33.07625 4.3402,31.55595 2.9353,30.03745 1.8615,28.18665 1.1169,26.00435 0.372,23.81345 0,21.33565 0,18.56455 c 0,-2.8549 0.397,-5.4238 1.1933,-7.6986 0.7856,-2.2736 1.9111,-4.2075 3.3664,-5.8002 1.4558,-1.5938 3.2076,-2.809 5.2638,-3.656 2.0646,-0.84680001 4.3572,-1.26130001 6.8789,-1.26130001 1.3973,0 2.6573,0.1012 3.7996,0.304 1.1332,0.2113 2.132,0.4601 2.9858,0.75540001 0.8472,0.2945 1.558,0.6164 2.116,0.9565 0.5672,0.3407 0.956,0.646 1.1765,0.8933 0.2279,0.2485 0.3894,0.6077 0.49,1.0678 0.0937,0.4516 0.1447,1.1328 0.1447,2.0356 z"
     style="fill:#454e4f;fill-rule:evenodd"
     id="path2" />
  <path
     d="m 125.687,25.81995 c 0,0.0793 -0.0268,0.1547 -0.0764,0.2182 -0.0472,0.0678 -0.1285,0.1226 -0.244,0.1611 -0.1116,0.0408 -0.2618,0.0747 -0.4528,0.0999 -0.1879,0.0251 -0.4276,0.0372 -0.7209,0.0372 -0.2856,0 -0.5253,-0.0121 -0.7181,-0.0372 -0.1932,-0.0252 -0.3487,-0.0591 -0.4606,-0.0999 -0.1105,-0.0385 -0.1932,-0.0933 -0.243,-0.1611 -0.0505,-0.0635 -0.0731,-0.1389 -0.0731,-0.2182 v -15.0476 c 0,-0.0793 0.0226,-0.1547 0.0731,-0.2183 0.0498,-0.0664 0.1325,-0.1207 0.2517,-0.1593 0.1154,-0.0427 0.2654,-0.0753 0.4564,-0.1003 0.1883,-0.0264 0.428,-0.0386 0.7136,-0.0386 0.2933,0 0.533,0.0122 0.7209,0.0386 0.191,0.025 0.3412,0.0576 0.4528,0.1003 0.1155,0.0386 0.1968,0.0929 0.244,0.1593 0.0496,0.0636 0.0764,0.139 0.0764,0.2183 z"
     style="fill:#94c229;fill-rule:evenodd"
     id="path4" />
  <path
     d="m 274.115,35.82145 c 1.3734,-0.008 2.6104,-0.2461 3.7108,-0.7294 1.0919,-0.4748 2.0727,-1.1449 2.9342,-2.0185 0.862,-0.8737 1.6293,-1.9083 2.3119,-3.1042 l -1.4332,-0.8142 c -0.5289,1.0092 -1.1599,1.8998 -1.8935,2.6632 -0.7339,0.7719 -1.5699,1.3739 -2.5081,1.815 -0.9383,0.4326 -1.9789,0.6531 -3.1221,0.6616 -1.5778,-0.008 -3.0112,-0.4155 -4.2908,-1.2129 -1.2796,-0.8059 -2.3712,-1.9253 -3.2924,-3.3673 -0.9128,-1.4417 -1.6209,-3.1377 -2.1155,-5.0802 -0.4865,-1.9421 -0.7339,-4.0709 -0.7424,-6.3695 0.008,-2.3238 0.2559,-4.4612 0.7424,-6.412 0.4946,-1.9505 1.2027,-3.6382 2.1155,-5.0802 0.9212,-1.4332 2.0128,-2.5444 3.2924,-3.3333 1.2796,-0.7971 2.713,-1.1959 4.2908,-1.2041 1.0922,0 2.0982,0.195 3.0198,0.568 0.9127,0.3734 1.7401,0.9077 2.4737,1.5948 0.7424,0.6868 1.3819,1.5094 1.9279,2.4678 l 1.4332,-0.8651 c -0.6653,-1.0431 -1.4159,-1.959 -2.2689,-2.7564 -0.8617,-0.7886 -1.8258,-1.4077 -2.9177,-1.8573 -1.0831,-0.44100001 -2.3031,-0.67010001 -3.668,-0.67860001 -1.8765,0.009 -3.5657,0.45810001 -5.0669,1.32320001 -1.5015,0.8737 -2.7808,2.0948 -3.8472,3.6723 -1.0749,1.5778 -1.885,3.435 -2.4565,5.5639 -0.5718,2.1373 -0.8532,4.4611 -0.8617,6.997 0.008,2.5192 0.2899,4.8427 0.8617,6.9718 0.5715,2.1288 1.3816,3.9861 2.4565,5.5639 1.0664,1.5859 2.3457,2.8071 3.8472,3.6892 1.5012,0.8737 3.1904,1.3145 5.0669,1.3315 z m 22.9808,0 c 1.561,-0.008 2.9602,-0.3138 4.2139,-0.8989 1.2626,-0.5936 2.363,-1.4335 3.3101,-2.5106 0.9467,-1.0772 1.7399,-2.3494 2.3796,-3.8081 0.6401,-1.4672 1.1177,-3.0702 1.4335,-4.8175 0.324,-1.7472 0.4859,-3.5875 0.4859,-5.5213 0,-1.9338 -0.1619,-3.774 -0.4859,-5.5213 -0.3158,-1.747 -0.7934,-3.35 -1.4335,-4.8172 -0.6397,-1.459 -1.4329,-2.7312 -2.3796,-3.8084 -0.9471,-1.0771 -2.0475,-1.9168 -3.3101,-2.5103 -1.2537,-0.5939 -2.6529,-0.89070001 -4.2139,-0.89920001 -1.5523,0.009 -2.96,0.30530001 -4.214,0.89920001 -1.2538,0.5935 -2.363,1.4332 -3.3095,2.5103 -0.947,1.0772 -1.7404,2.3494 -2.3799,3.8084 -0.6313,1.4672 -1.1177,3.0702 -1.4332,4.8172 -0.324,1.7473 -0.4865,3.5875 -0.4865,5.5213 0,1.9338 0.1625,3.7741 0.4865,5.5213 0.3155,1.7473 0.8019,3.3503 1.4332,4.8175 0.6395,1.4587 1.4329,2.7309 2.3799,3.8081 0.9465,1.0771 2.0557,1.917 3.3095,2.5106 1.254,0.5851 2.6617,0.8907 4.214,0.8989 z m 0,-1.5265 c -1.2963,-0.008 -2.4823,-0.28 -3.5397,-0.8229 -1.0579,-0.5428 -1.9879,-1.2977 -2.798,-2.2813 -0.8108,-0.9839 -1.4845,-2.1458 -2.039,-3.4773 -0.546,-1.3402 -0.9556,-2.8074 -1.237,-4.4019 -0.2812,-1.5947 -0.4179,-3.2825 -0.4179,-5.0465 0,-2.2391 0.222,-4.3257 0.6568,-6.2592 0.4263,-1.9338 1.0749,-3.6385 1.9194,-5.0972 0.8529,-1.459 1.9023,-2.6039 3.1475,-3.4263 1.2456,-0.8147 2.6785,-1.2387 4.3079,-1.2469 1.6293,0.008 3.0625,0.4322 4.3078,1.2469 1.2455,0.8224 2.2946,1.9673 3.1476,3.4263 0.8447,1.4587 1.493,3.1634 1.9278,5.0972 0.4266,1.9335 0.6486,4.0201 0.6486,6.2592 0,1.764 -0.1364,3.4518 -0.4181,5.0465 -0.2815,1.5945 -0.6906,3.0617 -1.2371,4.4019 -0.5539,1.3315 -1.2279,2.4934 -2.0384,3.4773 -0.8022,0.9836 -1.7402,1.7385 -2.7981,2.2813 -1.0578,0.5429 -2.2348,0.8144 -3.5401,0.8229 z m -37.9902,1.3366 v -1.5648 h -14.5307 v -15.5426 h 14.1636 v -1.5647 H 244.5749 V 2.40775 h 14.5307 V 0.84334999 H 242.8962 V 35.63155 Z"
     style="fill:#94c229;fill-rule:evenodd;stroke:#94c229;stroke-width:1.4173;stroke-linecap:round;stroke-linejoin:round;stroke-dasharray:none"
     id="path6" />
</svg>
