<?xml version="1.0" encoding="UTF-8" standalone="no"?>
<svg
   version="1.1"
   width="30.787502"
   height="31.06015"
   id="svg7"
   viewBox="0 0 30.787501 31.06015"
   sodipodi:docname="a8aaf1ebea3f41d975a6039800dc471c.cdr"
   xmlns:inkscape="http://www.inkscape.org/namespaces/inkscape"
   xmlns:sodipodi="http://sodipodi.sourceforge.net/DTD/sodipodi-0.dtd"
   xmlns="http://www.w3.org/2000/svg"
   xmlns:svg="http://www.w3.org/2000/svg">
  <defs
     id="defs11" />
  <sodipodi:namedview
     id="namedview9"
     pagecolor="#ffffff"
     bordercolor="#666666"
     borderopacity="1.0"
     inkscape:pageshadow="2"
     inkscape:pageopacity="0.0"
     inkscape:pagecheckerboard="0" />
  <g
     id="Layer1000"
     transform="translate(-275.97385,-93.362)">
    <path
       d="m 277.1945,121.9651 c 0,0.6237 0.1171,1.2364 1.1714,1.2364 h 26.0035 c 1.0533,0 1.1713,-0.6127 1.1713,-1.2364 0,-1.5122 -0.5761,-3.0275 -1.403,-4.3033 -0.3786,-0.5846 -0.6175,-0.7999 -1.0483,-1.2959 -0.1281,-0.1476 -0.4476,-0.4414 -0.6115,-0.5665 -0.4352,-0.3341 -0.865,-0.6813 -1.3628,-0.9545 -1.9157,-1.0483 -3.3489,-1.3744 -5.8822,-1.3744 h -7.7894 c -1.7142,0 -2.9308,0.1713 -4.1918,0.6141 -1.1924,0.4185 -2.7762,1.3691 -3.5802,2.252 -1.0202,1.1189 -1.7654,2.201 -2.1608,3.6613 -0.1593,0.5848 -0.3162,1.2692 -0.3162,1.9672 z"
       style="fill:none;stroke:#3997c0;stroke-width:2.4413;stroke-linecap:butt;stroke-linejoin:miter;stroke-dasharray:none"
       id="path2" />
    <path
       d="m 291.4267,94.5826 c 4.1346,0 7.4866,3.3518 7.4866,7.4866 0,4.135 -3.352,7.4868 -7.4866,7.4868 -4.1346,0 -7.4865,-3.3518 -7.4865,-7.4868 0,-4.1348 3.3519,-7.4866 7.4865,-7.4866 z"
       style="fill:none;stroke:#3997c0;stroke-width:2.4412;stroke-linecap:butt;stroke-linejoin:miter;stroke-dasharray:none"
       id="path4" />
  </g>
</svg>
