<?xml version="1.0" encoding="UTF-8" standalone="no"?>
<svg
   version="1.1"
   width="30.9484"
   height="30.648451"
   id="svg10"
   viewBox="0 0 30.948399 30.648451"
   sodipodi:docname="9f858854d0ce7eb6324588efc8999d95.cdr"
   xmlns:inkscape="http://www.inkscape.org/namespaces/inkscape"
   xmlns:sodipodi="http://sodipodi.sourceforge.net/DTD/sodipodi-0.dtd"
   xmlns="http://www.w3.org/2000/svg"
   xmlns:svg="http://www.w3.org/2000/svg">
  <defs
     id="defs14" />
  <sodipodi:namedview
     id="namedview12"
     pagecolor="#ffffff"
     bordercolor="#666666"
     borderopacity="1.0"
     inkscape:pageshadow="2"
     inkscape:pageopacity="0.0"
     inkscape:pagecheckerboard="0" />
  <path
     d="m 8.50765,25.96675 c -4.3162,-2.4357 -7.2356,-7.0658 -7.2356,-12.377 0,-5.2682 2.8696,-9.8656 7.126,-12.3177 m 14.2101,0.0327 c 4.2266,2.4583 7.0682,7.0413 7.0682,12.285 0,5.2805 -2.8835,9.8881 -7.1598,12.3341"
     style="fill:none;stroke:#dd4321;stroke-width:2.5441;stroke-linecap:round;stroke-linejoin:round;stroke-dasharray:none"
     id="path2" />
  <path
     d="m 11.22705,20.92855 c -2.5293,-1.4664 -4.2317,-4.205 -4.2317,-7.3392 0,-3.1428 1.7107,-5.8863 4.2483,-7.3502 m 8.6015,0.083 c 2.4614,1.4823 4.1079,4.183 4.1079,7.2672 0,3.1208 -1.6881,5.8484 -4.1984,7.3197"
     style="fill:none;stroke:#dd4321;stroke-width:2.5433;stroke-linecap:round;stroke-linejoin:round;stroke-dasharray:none"
     id="path4" />
  <path
     d="m 15.47415,13.38005 -0.006,16.0395"
     style="fill:none;stroke:#dd4321;stroke-width:2.4578;stroke-linecap:round;stroke-linejoin:miter;stroke-dasharray:none"
     id="path6" />
  <path
     d="m 15.47365,11.49255 a 2.126,2.1261 0 0 1 2.1259,2.1261 2.126,2.1261 0 1 1 -2.1259,-2.1261 z"
     style="fill:none;stroke:#dd4321;stroke-width:2.3754;stroke-linecap:butt;stroke-linejoin:miter;stroke-dasharray:none"
     id="path8" />
</svg>
