<?xml version="1.0" encoding="UTF-8" standalone="no"?>
<svg
   version="1.1"
   width="30.8479"
   height="30.750401"
   id="svg17"
   viewBox="0 0 30.847899 30.750401"
   sodipodi:docname="e908ea53763bac94bdfef1efa4f4eb2f.cdr"
   xmlns:inkscape="http://www.inkscape.org/namespaces/inkscape"
   xmlns:sodipodi="http://sodipodi.sourceforge.net/DTD/sodipodi-0.dtd"
   xmlns="http://www.w3.org/2000/svg"
   xmlns:svg="http://www.w3.org/2000/svg">
  <defs
     id="defs21" />
  <sodipodi:namedview
     id="namedview19"
     pagecolor="#ffffff"
     bordercolor="#666666"
     borderopacity="1.0"
     inkscape:pageshadow="2"
     inkscape:pageopacity="0.0"
     inkscape:pagecheckerboard="0" />
  <path
     d="M 6.92875,13.62475 V 2.22655 c 0,-0.5381 0.4403,-0.9784 0.9784,-0.9784 h 16.3626 l 5.33,4.9116 v 22.3641 c 0,0.5381 -0.4403,0.9784 -0.9784,0.9784 H 7.90715 c -0.5381,0 -0.9784,-0.4403 -0.9784,-0.9784 v -3.341"
     style="fill:none;stroke:#3997c0;stroke-width:2.4963;stroke-linecap:round;stroke-linejoin:round;stroke-dasharray:none"
     id="path2" />
  <path
     d="m 1.25375,14.50755 v 9.9168 q 0,0.6381 0.6381,0.6381 h 21.7946 q 0.6381,0 0.6381,-0.6381 v -9.9168 q 0,-0.6381 -0.6381,-0.6381 H 1.89185 q -0.6381,0 -0.6381,0.6381 z"
     style="fill:none;stroke:#3997c0;stroke-width:2.5075;stroke-linecap:butt;stroke-linejoin:miter;stroke-dasharray:none"
     id="path4" />
  <path
     d="m 10.62065,5.36925 h 11.448"
     style="fill:none;stroke:#3997c0;stroke-width:2.4962;stroke-linecap:round;stroke-linejoin:round;stroke-dasharray:none"
     id="path6" />
  <path
     d="m 10.62065,9.52965 h 11.448"
     style="fill:none;stroke:#3997c0;stroke-width:2.4962;stroke-linecap:round;stroke-linejoin:round;stroke-dasharray:none"
     id="path8" />
  <g
     id="Layer1000"
     transform="translate(-141.56135,-92.19375)">
    <path
       d="m 155.0878,112.9514 c -0.206,0.8528 -1.413,1.1033 -1.8805,0.353 -0.2608,-0.4186 -0.1871,-0.8353 -0.1864,-1.3845 10e-4,-0.8784 -0.238,-2.1026 0.8307,-2.3305 0.4855,-0.1035 0.9154,0.1677 1.0838,0.4257 0.2411,0.3694 0.1804,0.8521 0.1817,1.3724 0.001,0.366 0.0415,1.2707 -0.0293,1.5639 z m -3.1064,0 c 0.1571,1.3588 1.654,2.3517 3.1033,1.5886 0.4972,-0.2618 0.9683,-0.7697 1.0665,-1.5639 0.0321,-0.2593 0.0299,-2.3041 0.004,-2.5885 -0.1235,-1.3643 -1.7021,-2.3878 -3.1273,-1.5977 -0.4887,0.2709 -0.964,0.8294 -1.0448,1.5916 -0.04,0.3777 -0.0111,0.8782 -0.0119,1.2722 -7e-4,0.3842 -0.0323,0.9317 0.01,1.2977 z"
       style="fill:#3997c0;fill-rule:evenodd"
       id="path10" />
    <path
       d="m 161.1917,112.7118 c -0.0297,0.612 -0.5194,1.1285 -1.1984,1.0332 -0.7024,-0.0987 -0.8986,-0.6766 -0.8965,-1.2927 0.002,-0.4526 -0.0518,-1.854 0.0536,-2.1686 0.1581,-0.4722 0.745,-0.9455 1.4345,-0.6213 0.2655,0.1247 0.4211,0.2947 0.5461,0.5844 0.2909,0.6748 1.24,0.2695 0.9566,-0.4259 -0.1133,-0.2778 -0.2582,-0.4915 -0.429,-0.6689 -0.8275,-0.8589 -2.3139,-0.8273 -3.0738,0.0683 -0.4213,0.4966 -0.5409,0.8608 -0.5382,1.7013 0.002,0.5553 -0.061,1.6883 0.0366,2.1691 0.3817,1.8794 2.8205,2.4044 3.8756,0.6662 0.2274,-0.3747 0.4343,-1.3844 0.2186,-1.8294 -0.1364,-0.2816 -0.4273,-0.2659 -0.8247,-0.265 -0.3179,7e-4 -0.7693,-0.0553 -0.9919,0.0982 -0.2191,0.151 -0.306,0.5298 -0.0879,0.7704 0.21,0.2316 0.5373,0.1796 0.9188,0.1807 z"
       style="fill:#3997c0;fill-rule:evenodd"
       id="path12" />
    <path
       d="m 147.9905,113.756 c 0.001,-0.6429 0.0634,-4.683 -0.0481,-4.9371 -0.1279,-0.2915 -0.5596,-0.4261 -0.8387,-0.157 -0.227,0.2188 -0.159,0.6828 -0.16,1.0619 v 3.7267 c -0.002,0.445 0.004,0.696 0.2388,0.9825 0.4211,0.5131 1.2853,0.3753 2.1168,0.3741 0.3657,-5e-4 0.8879,0.0761 1.1246,-0.1325 0.2797,-0.2466 0.2407,-0.6656 -0.0504,-0.834 -0.2719,-0.1573 -1.9324,-0.0815 -2.383,-0.0846 z"
       style="fill:#3997c0;fill-rule:evenodd"
       id="path14" />
  </g>
</svg>
