<?xml version="1.0" encoding="UTF-8" standalone="no"?>
<svg
   version="1.1"
   width="30.776899"
   height="30.734121"
   id="svg17"
   viewBox="0 0 30.776898 30.734121"
   sodipodi:docname="8b0975f1b7eaf8713d9114eb63656bcc.cdr"
   xmlns:inkscape="http://www.inkscape.org/namespaces/inkscape"
   xmlns:sodipodi="http://sodipodi.sourceforge.net/DTD/sodipodi-0.dtd"
   xmlns="http://www.w3.org/2000/svg"
   xmlns:svg="http://www.w3.org/2000/svg">
  <defs
     id="defs21" />
  <sodipodi:namedview
     id="namedview19"
     pagecolor="#ffffff"
     bordercolor="#666666"
     borderopacity="1.0"
     inkscape:pageshadow="2"
     inkscape:pageopacity="0.0"
     inkscape:pagecheckerboard="0" />
  <g
     id="Layer1000"
     transform="translate(-86.77425,-91.38895)">
    <path
       d="m 96.5583,103.1839 a 3.6107,3.5726 0 0 1 3.6107,3.5726 3.6107,3.5726 0 1 1 -3.6107,-3.5726 z"
       style="fill:none;stroke:#3997c0;stroke-width:2.4325;stroke-linecap:butt;stroke-linejoin:miter;stroke-dasharray:none"
       id="path2" />
    <path
       d="m 112.6688,92.6052 a 3.6107,3.5726 0 0 1 3.6106,3.5726 3.6107,3.5726 0 1 1 -3.6106,-3.5726 z"
       style="fill:none;stroke:#3997c0;stroke-width:2.4325;stroke-linecap:butt;stroke-linejoin:miter;stroke-dasharray:none"
       id="path4" />
    <path
       d="m 112.7242,113.7626 a 3.6107,3.5726 0 0 1 3.6107,3.5726 3.6107,3.5726 0 1 1 -3.6107,-3.5726 z"
       style="fill:none;stroke:#3997c0;stroke-width:2.4325;stroke-linecap:butt;stroke-linejoin:miter;stroke-dasharray:none"
       id="path6" />
    <path
       d="m 87.9878,96.147 h 20.4151"
       style="fill:none;stroke:#3997c0;stroke-width:2.4271;stroke-linecap:round;stroke-linejoin:miter;stroke-dasharray:none"
       id="path8" />
    <path
       d="m 87.9878,106.7922 h 4.9601"
       style="fill:none;stroke:#3997c0;stroke-width:2.4203;stroke-linecap:round;stroke-linejoin:miter;stroke-dasharray:none"
       id="path10" />
    <path
       d="m 100.1689,106.7922 h 16.0879"
       style="fill:none;stroke:#3997c0;stroke-width:2.435;stroke-linecap:round;stroke-linejoin:miter;stroke-dasharray:none"
       id="path12" />
    <path
       d="m 87.9878,117.4374 h 20.4151"
       style="fill:none;stroke:#3997c0;stroke-width:2.4271;stroke-linecap:round;stroke-linejoin:miter;stroke-dasharray:none"
       id="path14" />
  </g>
</svg>
