<?xml version="1.0" encoding="UTF-8" standalone="no"?>
<svg
   version="1.1"
   width="34.048447"
   height="30.7225"
   id="svg6"
   viewBox="0 0 34.048445 30.7225"
   sodipodi:docname="734054ca6585cb07a50459a46aaf2344.cdr"
   xmlns:inkscape="http://www.inkscape.org/namespaces/inkscape"
   xmlns:sodipodi="http://sodipodi.sourceforge.net/DTD/sodipodi-0.dtd"
   xmlns="http://www.w3.org/2000/svg"
   xmlns:svg="http://www.w3.org/2000/svg">
  <defs
     id="defs10" />
  <sodipodi:namedview
     id="namedview8"
     pagecolor="#ffffff"
     bordercolor="#666666"
     borderopacity="1.0"
     inkscape:pageshadow="2"
     inkscape:pageopacity="0.0"
     inkscape:pagecheckerboard="0" />
  <path
     d="m 6.6895468,14.1344 -0.0111,-3.9498 c -0.011,-1.9156 1.7493,-3.6337 3.9206002,-3.6337 2.1717,0 3.932,1.7181 3.9093,3.5439 l -0.0649,4.0396 -2.8015,-3e-4 c -0.614,0 -1.1163,0.5026 -1.1163,1.1169 v 13.1669 c 0,0.6149 0.5023,1.1169 1.1163,1.1169 h 20.1025 c 0.614,0 1.1163,-0.502 1.1163,-1.1169 V 15.251 c 0,-0.6143 -0.5023,-1.1169 -1.1163,-1.1169 l -11.6853,3e-4 -0.0371,-3.9569 c 0.005,-4.8704 -4.216,-8.9898 -9.423,-8.9898 -5.2066002,0 -9.4274002,4.1194 -9.4113002,8.8178 l 0.0168,4.1289 z"
     style="fill:none;stroke:#52ff00;stroke-width:2.3754;stroke-linecap:round;stroke-linejoin:round;stroke-dasharray:none"
     id="path2" />
  <path
     d="m 21.827447,18.6922 a 2.8346,2.8348 0 0 1 2.8346,2.8348 2.8346,2.8348 0 1 1 -2.8346,-2.8348 z"
     style="fill:none;stroke:#52ff00;stroke-width:2.3754;stroke-linecap:butt;stroke-linejoin:miter;stroke-dasharray:none"
     id="path4" />
</svg>
