<?xml version="1.0" encoding="UTF-8" standalone="no"?>
<svg
   version="1.1"
   width="30.9484"
   height="30.648451"
   id="svg10"
   viewBox="0 0 30.948399 30.648451"
   sodipodi:docname="3ae03b3bd9297e17c7556f4ab293b981.cdr"
   xmlns:inkscape="http://www.inkscape.org/namespaces/inkscape"
   xmlns:sodipodi="http://sodipodi.sourceforge.net/DTD/sodipodi-0.dtd"
   xmlns="http://www.w3.org/2000/svg"
   xmlns:svg="http://www.w3.org/2000/svg">
  <defs
     id="defs14" />
  <sodipodi:namedview
     id="namedview12"
     pagecolor="#ffffff"
     bordercolor="#666666"
     borderopacity="1.0"
     inkscape:pageshadow="2"
     inkscape:pageopacity="0.0"
     inkscape:pagecheckerboard="0" />
  <path
     d="m 8.50765,25.96675 c -4.3163,-2.4357 -7.2356,-7.0658 -7.2356,-12.377 0,-5.2682 2.8695,-9.8656 7.126,-12.3177 m 14.2101,0.0327 c 4.2265,2.4582 7.0682,7.0413 7.0682,12.285 0,5.2805 -2.8835,9.8881 -7.1599,12.3341"
     style="fill:none;stroke:#52ff00;stroke-width:2.5441;stroke-linecap:round;stroke-linejoin:round;stroke-dasharray:none"
     id="path2" />
  <path
     d="m 11.22695,20.92855 c -2.5292,-1.4664 -4.2317,-4.205 -4.2317,-7.3392 0,-3.1428 1.7108,-5.8863 4.2484,-7.3502 m 8.6014,0.083 c 2.4615,1.4822 4.108,4.183 4.108,7.2672 0,3.1208 -1.6882,5.8484 -4.1984,7.3196"
     style="fill:none;stroke:#52ff00;stroke-width:2.5433;stroke-linecap:round;stroke-linejoin:round;stroke-dasharray:none"
     id="path4" />
  <path
     d="m 15.47415,13.38005 -0.006,16.0395"
     style="fill:none;stroke:#52ff00;stroke-width:2.4578;stroke-linecap:round;stroke-linejoin:miter;stroke-dasharray:none"
     id="path6" />
  <path
     d="m 15.47415,11.25415 a 2.126,2.1261 0 0 1 2.126,2.1261 2.126,2.1261 0 1 1 -2.126,-2.1261 z"
     style="fill:none;stroke:#52ff00;stroke-width:2.3754;stroke-linecap:butt;stroke-linejoin:miter;stroke-dasharray:none"
     id="path8" />
</svg>
