<?xml version="1.0" encoding="UTF-8" standalone="no"?>
<svg
   version="1.1"
   width="30.7323"
   height="31.0896"
   id="svg4"
   viewBox="0 0 30.732299 31.0896"
   sodipodi:docname="7709d92c9051097c7c348cd836fc3584.cdr"
   xmlns:inkscape="http://www.inkscape.org/namespaces/inkscape"
   xmlns:sodipodi="http://sodipodi.sourceforge.net/DTD/sodipodi-0.dtd"
   xmlns="http://www.w3.org/2000/svg"
   xmlns:svg="http://www.w3.org/2000/svg">
  <defs
     id="defs8" />
  <sodipodi:namedview
     id="namedview6"
     pagecolor="#ffffff"
     bordercolor="#666666"
     borderopacity="1.0"
     inkscape:pageshadow="2"
     inkscape:pageopacity="0.0"
     inkscape:pagecheckerboard="0" />
  <path
     d="m 15.36625,1.19265 c 7.8279,0 14.1734,2.421 14.1734,5.4077 0,2.9862 -6.3455,5.4072 -14.1734,5.4072 -7.828,0 -14.1736,-2.421 -14.1736,-5.4072 0,-2.9867 6.3456,-5.4077 14.1736,-5.4077 z m 14.1734,11.3705 c 0,2.9863 -6.3455,5.4076 -14.1736,5.4076 -7.8278,0 -14.1734,-2.4213 -14.1734,-5.4076 m 28.347,5.9631 c 0,2.9864 -6.3455,5.4076 -14.1736,5.4076 -7.8278,0 -14.1734,-2.4212 -14.1734,-5.4076 m 0,-11.9259 v 17.8891 c 0,2.9863 6.3456,5.4075 14.1734,5.4075 7.8281,0 14.1736,-2.4212 14.1736,-5.4075 V 6.60035"
     style="fill:none;stroke:#dd4321;stroke-width:2.3853;stroke-linecap:butt;stroke-linejoin:miter;stroke-dasharray:none"
     id="path2" />
</svg>
