<?xml version="1.0" encoding="UTF-8" standalone="no"?>
<svg
   version="1.1"
   width="30.721901"
   height="30.916599"
   id="svg6"
   viewBox="0 0 30.7219 30.916599"
   sodipodi:docname="7eca8427d07e02923e3828bf5c41dfd2.cdr"
   xmlns:inkscape="http://www.inkscape.org/namespaces/inkscape"
   xmlns:sodipodi="http://sodipodi.sourceforge.net/DTD/sodipodi-0.dtd"
   xmlns="http://www.w3.org/2000/svg"
   xmlns:svg="http://www.w3.org/2000/svg">
  <defs
     id="defs10" />
  <sodipodi:namedview
     id="namedview8"
     pagecolor="#ffffff"
     bordercolor="#666666"
     borderopacity="1.0"
     inkscape:pageshadow="2"
     inkscape:pageopacity="0.0"
     inkscape:pagecheckerboard="0" />
  <path
     d="m 19.3269,14.2231 0.0309,-3.9767 C 19.3689,8.3177 17.5967,6.5877 15.41,6.5877 c -2.1864,0 -3.9589,1.73 -3.9359,3.5683 l -0.01,4.0671 z m 5.5741,0 -0.0148,-4.1573 C 24.9024,5.3354 20.6527,1.1877 15.41,1.1877 c -5.2424,0 -9.4921,4.1477 -9.4875,9.0516 L 5.9049,14.2231 H 1.7547 c -0.3118,0 -0.567,0.2551 -0.567,0.5669 v 14.372 c 0,0.3118 0.2552,0.5669 0.567,0.5669 h 27.2126 c 0.3118,0 0.5669,-0.2551 0.5669,-0.5669 V 14.79 c 0,-0.3118 -0.2551,-0.5669 -0.5669,-0.5669 z"
     style="fill:none;stroke:#dd4321;stroke-width:2.3754;stroke-linecap:round;stroke-linejoin:round;stroke-dasharray:none"
     id="path2" />
  <path
     d="m 15.4083,18.8427 a 2.8346,2.8348 0 0 1 2.8347,2.8348 2.8346,2.8348 0 1 1 -2.8347,-2.8348 z"
     style="fill:none;stroke:#dd4321;stroke-width:2.3754;stroke-linecap:butt;stroke-linejoin:miter;stroke-dasharray:none"
     id="path4" />
</svg>
